<?xml version="1.0" standalone="no"?>
<!DOCTYPE svg PUBLIC "-//W3C//DTD SVG 20010904//EN"
 "http://www.w3.org/TR/2001/REC-SVG-20010904/DTD/svg10.dtd">
<svg version="1.0" xmlns="http://www.w3.org/2000/svg"
 width="296.000000pt" height="296.000000pt" viewBox="0 0 296.000000 296.000000"
 preserveAspectRatio="xMidYMid meet">
<metadata>
Created by potrace 1.14, written by Peter Selinger 2001-2017
</metadata>
<g transform="translate(0.000000,296.000000) scale(0.100000,-0.100000)"
fill="#000000" stroke="none">
<path d="M646 2943 c-300 -64 -528 -294 -590 -595 -23 -110 -22 -1636 1 -1742
61 -290 275 -509 570 -585 75 -20 104 -20 868 -18 435 2 804 6 820 10 289 74
493 268 576 548 22 73 22 81 24 887 1 447 -1 834 -6 860 -14 86 -17 97 -46
172 -89 231 -298 407 -548 464 -101 22 -1563 22 -1669 -1z"/>
</g>
</svg>
